<?xml version="1.0"?>
<svg xmlns="http://www.w3.org/2000/svg" height="512px" viewBox="0 0 512 512" width="512px" class=""><g><g><path d="m376 8h-240a32.036 32.036 0 0 0 -32 32v432a32.036 32.036 0 0 0 32 32h240a32.036 32.036 0 0 0 32-32v-432a32.036 32.036 0 0 0 -32-32zm-66.25 16-4 16h-99.69l-4.5-16zm82.25 448a16.021 16.021 0 0 1 -16 16h-8v-24a8 8 0 0 0 -16 0v24h-192v-24a8 8 0 0 0 -16 0v24h-8a16.021 16.021 0 0 1 -16-16v-63.91a55.827 55.827 0 0 1 11.17-3.91l77.85-18.32a48 48 0 0 0 93.96 0l77.85 18.32a55.827 55.827 0 0 1 11.17 3.91zm-112-288h37.97a55.723 55.723 0 0 1 8.71 19.88c-16.76 7.84-46.49 13.75-86.64 17.17-23.53 2.01-44.93 2.65-56.04 2.85v-7.9a56.062 56.062 0 0 1 56-56h32v16a8 8 0 0 0 8 8zm48-32a16.021 16.021 0 0 1 16 16h-32a16.021 16.021 0 0 1 16-16zm-8-32a8 8 0 1 1 8 8 8.011 8.011 0 0 1 -8-8zm22.2 19.33a24 24 0 1 0 -28.4 0 32.041 32.041 0 0 0 -17.8 28.67h-8v-88h80v88h-8a32.041 32.041 0 0 0 -17.8-28.67zm-14.2 81.35v75.32a56.062 56.062 0 0 1 -56 56h-32a56.062 56.062 0 0 1 -56-56v-56.08c25.24-.42 102.81-3.04 144-19.24zm-40 145.51v9.81a32 32 0 0 1 -64 0v-9.81a72.124 72.124 0 0 0 16 1.81h32a72.124 72.124 0 0 0 16-1.81zm104 24.61a74.332 74.332 0 0 0 -7.51-2.2l-80.49-18.94v-9.19a72.261 72.261 0 0 0 38.19-48.47h1.81a24.032 24.032 0 0 0 24-24v-32a24.032 24.032 0 0 0 -24-24v-16a72.868 72.868 0 0 0 -.52-8.69v-.02c-.01-.05-.01-.1-.02-.14a71.652 71.652 0 0 0 -6.95-23.15h39.49a8 8 0 0 0 8-8v-104a8 8 0 0 0 -8-8h-96a8 8 0 0 0 -8 8v72h-32a72.083 72.083 0 0 0 -72 72v16a24.032 24.032 0 0 0 -24 24v32a24.032 24.032 0 0 0 24 24h1.81a72.261 72.261 0 0 0 38.19 48.47v9.19l-80.49 18.94a74.332 74.332 0 0 0 -7.51 2.2v-350.8a16.021 16.021 0 0 1 16-16h48.94l7.36 26.17a8 8 0 0 0 7.7 5.83h112a8 8 0 0 0 7.76-6.06l6.49-25.94h49.75a16.021 16.021 0 0 1 16 16zm-48-94.8v-48a8.011 8.011 0 0 1 8 8v32a8.011 8.011 0 0 1 -8 8zm-176-48v48a8.011 8.011 0 0 1 -8-8v-32a8.011 8.011 0 0 1 8-8z" data-original="#000000" class="active-path" data-old_color="#000000" fill="#4DABF7"/><path d="m224 320a8 8 0 0 0 8 8h48a8 8 0 0 0 0-16h-48a8 8 0 0 0 -8 8z" data-original="#000000" class="active-path" data-old_color="#000000" fill="#4DABF7"/><circle cx="224" cy="264" r="8" data-original="#000000" class="active-path" data-old_color="#000000" fill="#4DABF7"/><circle cx="288" cy="264" r="8" data-original="#000000" class="active-path" data-old_color="#000000" fill="#4DABF7"/></g></g> </svg>
